<svg xmlns="http://www.w3.org/2000/svg" version="1.1" xmlns:xlink="http://www.w3.org/1999/xlink" xmlns:svgjs="http://svgjs.dev/svgjs" width="1728" height="1117" preserveAspectRatio="none" viewBox="0 0 1728 1117"><g clip-path="url(&quot;#SvgjsClipPath2036&quot;)" fill="none"><rect width="1728" height="1117" x="0" y="0" fill="url(&quot;#SvgjsRadialGradient2037&quot;)"></rect><circle r="186.165" cx="-11.13" cy="-185.75" stroke="#ff6bb5" stroke-opacity="0.1" stroke-width="2"></circle><circle r="186.165" cx="634.38" cy="634.18" stroke="#ff6bb5" stroke-opacity="0.1" stroke-width="2"></circle><circle r="108.28" cx="1.81" cy="763.36" stroke="#ff6bb5" stroke-opacity="0.1" stroke-width="2"></circle><circle r="138.375" cx="1303.43" cy="955.12" stroke="#ff6bb5" stroke-opacity="0.1" stroke-width="2"></circle><circle r="370.225" cx="285.88" cy="295.89" stroke="#ff6bb5" stroke-opacity="0.1" stroke-width="2"></circle><circle r="168.26" cx="196.7" cy="304.73" stroke="#ff6bb5" stroke-opacity="0.1" stroke-width="2"></circle><circle r="206.22" cx="904.41" cy="971.58" stroke="#ff6bb5" stroke-opacity="0.1" stroke-width="2"></circle><circle r="149.595" cx="115.48" cy="332.02" stroke="#ff6bb5" stroke-opacity="0.1" stroke-width="2"></circle><circle r="224.21" cx="1653.1" cy="15.88" stroke="#ff6bb5" stroke-opacity="0.1" stroke-width="2"></circle><circle r="319.055" cx="911.89" cy="15.9" stroke="#ff6bb5" stroke-opacity="0.1" stroke-width="2"></circle><circle r="214.785" cx="1519.47" cy="1021.74" stroke="#ff6bb5" stroke-opacity="0.1" stroke-width="2"></circle><circle r="223.215" cx="1188.99" cy="110.75" stroke="#ff6bb5" stroke-opacity="0.1" stroke-width="2"></circle><circle r="98.25" cx="1678.57" cy="563.3" stroke="#ff6bb5" stroke-opacity="0.1" stroke-width="2"></circle><circle r="262.745" cx="1060.57" cy="210.04" stroke="#ff6bb5" stroke-opacity="0.1" stroke-width="2"></circle><circle r="121.175" cx="22.42" cy="124.46" stroke="#ff6bb5" stroke-opacity="0.1" stroke-width="2"></circle><circle r="264.11" cx="509.6" cy="822.8" stroke="#ff6bb5" stroke-opacity="0.1" stroke-width="2"></circle><circle r="310.805" cx="156.87" cy="85.21" stroke="#ff6bb5" stroke-opacity="0.1" stroke-width="2"></circle><circle r="120.255" cx="255.62" cy="502.21" stroke="#ff6bb5" stroke-opacity="0.1" stroke-width="2"></circle><circle r="345.665" cx="553.05" cy="267.79" stroke="#ff6bb5" stroke-opacity="0.1" stroke-width="2"></circle><circle r="195.54" cx="832.59" cy="586.33" stroke="#ff6bb5" stroke-opacity="0.1" stroke-width="2"></circle><circle r="249.765" cx="1356.04" cy="697" stroke="#ff6bb5" stroke-opacity="0.1" stroke-width="2"></circle><circle r="368.28" cx="535.95" cy="588.77" stroke="#ff6bb5" stroke-opacity="0.1" stroke-width="2"></circle><circle r="297.555" cx="1387.93" cy="106.43" stroke="#ff6bb5" stroke-opacity="0.1" stroke-width="2"></circle><circle r="184.64" cx="1666.9" cy="6.44" stroke="#ff6bb5" stroke-opacity="0.1" stroke-width="2"></circle><circle r="146.09" cx="1412.3" cy="936.47" stroke="#ff6bb5" stroke-opacity="0.1" stroke-width="2"></circle></g><defs><clipPath id="SvgjsClipPath2036"><rect width="1728" height="1117" x="0" y="0"></rect></clipPath><radialGradient cx="50%" cy="50%" r="1028.79" gradientUnits="userSpaceOnUse" id="SvgjsRadialGradient2037"><stop stop-color="rgba(43, 43, 145, 1)" offset="0"></stop><stop stop-color="rgba(19, 19, 69, 1)" offset="1"></stop></radialGradient></defs></svg>