<svg xmlns="http://www.w3.org/2000/svg" version="1.1" xmlns:xlink="http://www.w3.org/1999/xlink" xmlns:svgjs="http://svgjs.dev/svgjs" width="1728" height="1117" preserveAspectRatio="none" viewBox="0 0 1728 1117"><g clip-path="url(&quot;#SvgjsClipPath2348&quot;)" fill="none"><rect width="1728" height="1117" x="0" y="0" fill="url(&quot;#SvgjsLinearGradient2349&quot;)"></rect><circle r="186.165" cx="-120.8" cy="23.45" stroke="#ff6bb5" stroke-opacity="0.2" stroke-width="2"></circle><circle r="186.165" cx="599.75" cy="837" stroke="#ff6bb5" stroke-opacity="0.2" stroke-width="2"></circle><circle r="136.25" cx="1702.35" cy="332.46" stroke="#ff6bb5" stroke-opacity="0.2" stroke-width="2"></circle><circle r="335.65" cx="473.2" cy="581.57" stroke="#ff6bb5" stroke-opacity="0.2" stroke-width="2"></circle><circle r="102.625" cx="1303.33" cy="1001.51" stroke="#ff6bb5" stroke-opacity="0.2" stroke-width="2"></circle><circle r="241.24" cx="256" cy="35.85" stroke="#ff6bb5" stroke-opacity="0.2" stroke-width="2"></circle><circle r="277.585" cx="86.09" cy="837.83" stroke="#ff6bb5" stroke-opacity="0.2" stroke-width="2"></circle><circle r="119.25" cx="1721" cy="70.8" stroke="#ff6bb5" stroke-opacity="0.2" stroke-width="2"></circle><circle r="158.06" cx="1558.24" cy="1033.38" stroke="#ff6bb5" stroke-opacity="0.2" stroke-width="2"></circle><circle r="124.915" cx="1097.85" cy="69.83" stroke="#ff6bb5" stroke-opacity="0.2" stroke-width="2"></circle><circle r="129.78" cx="516.12" cy="926.61" stroke="#ff6bb5" stroke-opacity="0.2" stroke-width="2"></circle><circle r="272.06" cx="1681.95" cy="201.14" stroke="#ff6bb5" stroke-opacity="0.2" stroke-width="2"></circle><circle r="158.115" cx="876.56" cy="852.41" stroke="#ff6bb5" stroke-opacity="0.2" stroke-width="2"></circle><circle r="228.385" cx="548.1" cy="1093.98" stroke="#ff6bb5" stroke-opacity="0.2" stroke-width="2"></circle><circle r="117.33" cx="409.37" cy="745.92" stroke="#ff6bb5" stroke-opacity="0.2" stroke-width="2"></circle><circle r="100.39" cx="108.69" cy="434.24" stroke="#ff6bb5" stroke-opacity="0.2" stroke-width="2"></circle><circle r="143.875" cx="1717.9" cy="955.62" stroke="#ff6bb5" stroke-opacity="0.2" stroke-width="2"></circle><circle r="237.67" cx="293.44" cy="863.91" stroke="#ff6bb5" stroke-opacity="0.2" stroke-width="2"></circle><circle r="279.235" cx="1691.75" cy="321.85" stroke="#ff6bb5" stroke-opacity="0.2" stroke-width="2"></circle><circle r="353.17" cx="7.46" cy="132.19" stroke="#ff6bb5" stroke-opacity="0.2" stroke-width="2"></circle><circle r="224.38" cx="459.64" cy="1032.38" stroke="#ff6bb5" stroke-opacity="0.2" stroke-width="2"></circle><circle r="364.705" cx="567.93" cy="692.15" stroke="#ff6bb5" stroke-opacity="0.2" stroke-width="2"></circle><circle r="312.115" cx="1199.52" cy="498.6" stroke="#ff6bb5" stroke-opacity="0.2" stroke-width="2"></circle><circle r="214.015" cx="849.85" cy="181.62" stroke="#ff6bb5" stroke-opacity="0.2" stroke-width="2"></circle><circle r="304.55" cx="911.26" cy="357.76" stroke="#ff6bb5" stroke-opacity="0.2" stroke-width="2"></circle></g><defs><clipPath id="SvgjsClipPath2348"><rect width="1728" height="1117" x="0" y="0"></rect></clipPath><linearGradient x1="50%" y1="100%" x2="50%" y2="0%" gradientUnits="userSpaceOnUse" id="SvgjsLinearGradient2349"><stop stop-color="rgba(0, 69, 155, 1)" offset="0"></stop><stop stop-color="rgba(43, 43, 145, 1)" offset="1"></stop></linearGradient></defs></svg>